<?xml version="1.0" encoding="utf-8" ?>
<svg baseProfile="full" height="1024" version="1.1" viewBox="0 0 1024 1024" width="1024" xmlns="http://www.w3.org/2000/svg" xmlns:ev="http://www.w3.org/2001/xml-events" xmlns:xlink="http://www.w3.org/1999/xlink"><defs /><rect fill="white" height="1024" width="1024" x="0" y="0" /><path d="M 526 360 L 526 606 L 672 606 L 673 605 L 684 604 L 704 597 L 713 591 L 723 581 L 727 575 L 733 560 L 734 544 L 735 543 L 733 525 L 728 511 L 723 503 L 714 493 L 699 483 L 679 476 L 692 469 L 700 461 L 705 453 L 710 439 L 711 414 L 706 396 L 700 386 L 689 375 L 682 370 L 668 364 L 660 363 L 655 361 L 648 361 L 647 360 Z M 575 501 L 576 500 L 646 500 L 661 504 L 673 515 L 676 521 L 678 529 L 678 541 L 676 549 L 674 553 L 665 562 L 655 566 L 650 566 L 649 567 L 576 567 L 575 566 Z M 575 400 L 576 399 L 625 399 L 626 400 L 638 401 L 647 405 L 654 411 L 660 424 L 660 439 L 657 447 L 650 455 L 637 461 L 630 461 L 629 462 L 576 462 L 575 461 Z " fill="#222222" fill-rule="evenodd" stroke="none" /><path d="M 489 360 L 407 360 L 373 425 L 361 445 L 360 449 L 354 458 L 348 471 L 339 486 L 339 488 L 327 508 L 327 510 L 318 525 L 317 529 L 276 604 L 276 606 L 327 606 L 362 542 L 434 542 L 435 543 L 435 606 L 489 606 Z M 434 406 L 435 407 L 435 500 L 434 501 L 384 501 L 383 499 L 388 492 L 403 462 Z " fill="#222222" fill-rule="evenodd" stroke="none" /></svg>
